<svg width="48" height="50" viewBox="0 0 48 50" fill="none" xmlns="http://www.w3.org/2000/svg">
<path d="M24 21.3304L30.6975 10.5581C31.5116 9.2487 31.2005 7.53539 29.9781 6.59568L24 2M24 21.3304L17.3025 10.5581C16.4884 9.2487 16.7995 7.53539 18.0219 6.59568L24 2M24 21.3304V2M46.5581 21.3304C45.9986 18.4991 44.9212 15.8132 43.3954 13.4033C41.9113 11.0593 38.6715 11.0784 36.7162 13.0466L35.6323 14.1378C33.6952 16.0877 33.8299 19.2395 34.781 21.8182C34.9925 22.3917 35.1594 22.9836 35.279 23.5889C35.7228 25.8344 35.495 28.1621 34.6246 30.2774C33.7542 32.3927 32.2802 34.2007 30.3891 35.4727C28.4979 36.7447 26.2745 37.4236 24 37.4236C21.7255 37.4236 19.5021 36.7447 17.6109 35.4727C15.7198 34.2006 14.2458 32.3927 13.3754 30.2774C12.505 28.1621 12.2772 25.8344 12.721 23.5889C12.8406 22.9836 13.0075 22.3917 13.219 21.8182C14.1701 19.2395 14.3048 16.0877 12.3677 14.1377L11.2838 13.0466C9.32851 11.0784 6.08869 11.0593 4.60458 13.4033C3.07876 15.8132 2.00142 18.4991 1.44195 21.3304C0.554489 25.8216 1.00996 30.4768 2.75078 34.7074C4.49159 38.938 7.43956 42.554 11.2219 45.0981C15.0042 47.6421 19.451 49 24 49C28.549 49 32.9958 47.6421 36.7781 45.0981C40.5604 42.554 43.5084 38.9381 45.2492 34.7074C46.99 30.4768 47.4455 25.8216 46.5581 21.3304Z" stroke="#5B483C" stroke-width="2"/>
</svg>
