<svg width="104" height="107" viewBox="0 0 104 107" fill="none" xmlns="http://www.w3.org/2000/svg">
<path d="M83.8198 23.1802C85.7724 21.2276 88.9606 21.2132 90.7085 23.351C95.8775 29.673 99.4363 37.1866 101.039 45.2455C102.969 54.9445 101.978 64.9979 98.194 74.1342C94.4096 83.2705 88.001 91.0794 79.7785 96.5735C71.5561 102.068 61.8891 105 52 105C42.111 105 32.444 102.068 24.2215 96.5735C15.999 91.0794 9.59042 83.2705 5.80604 74.1342C2.02166 64.9978 1.0315 54.9445 2.96076 45.2455C4.56378 37.1865 8.12252 29.673 13.2915 23.351C15.0395 21.2132 18.2276 21.2276 20.1802 23.1802L30.7868 33.7868C32.7394 35.7394 32.6884 38.8851 31.1627 41.1868C29.3744 43.8844 28.118 46.9173 27.4804 50.1227C26.5158 54.9723 27.0108 59.9989 28.903 64.5671C30.7952 69.1352 33.9995 73.0397 38.1108 75.7867C42.222 78.5338 47.0555 80 52 80C56.9446 80 61.778 78.5338 65.8893 75.7867C70.0005 73.0397 73.2048 69.1352 75.097 64.5671C76.9892 59.9989 77.4843 54.9723 76.5197 50.1227C75.8821 46.9173 74.6256 43.8844 72.8374 41.1868C71.3116 38.8851 71.2606 35.7394 73.2132 33.7868L83.8198 23.1802Z" fill="#619B8A"/>
<path d="M52 45.2455L68.2276 19.3169C69.0494 18.0039 68.7364 16.2812 67.5054 15.3411L52 3.5M52 45.2455L35.7724 19.3169C34.9507 18.0039 35.2636 16.2812 36.4946 15.3411L52 3.5M52 45.2455V3.5M101.039 45.2455C99.4363 37.1866 95.8775 29.673 90.7085 23.351C88.9606 21.2132 85.7724 21.2276 83.8198 23.1802L73.2132 33.7868C71.2606 35.7394 71.3116 38.8851 72.8374 41.1868C74.6256 43.8844 75.8821 46.9173 76.5197 50.1227C77.4843 54.9723 76.9892 59.9989 75.097 64.5671C73.2048 69.1352 70.0005 73.0397 65.8893 75.7867C61.778 78.5338 56.9446 80 52 80C47.0555 80 42.222 78.5338 38.1108 75.7867C33.9995 73.0397 30.7952 69.1352 28.903 64.5671C27.0108 59.9989 26.5158 54.9723 27.4804 50.1227C28.118 46.9173 29.3744 43.8844 31.1627 41.1868C32.6884 38.8851 32.7394 35.7394 30.7868 33.7868L20.1802 23.1802C18.2276 21.2276 15.0395 21.2132 13.2915 23.351C8.12252 29.673 4.56378 37.1865 2.96076 45.2455C1.0315 54.9445 2.02166 64.9978 5.80604 74.1342C9.59042 83.2705 15.999 91.0794 24.2215 96.5735C32.444 102.068 42.111 105 52 105C61.8891 105 71.5561 102.068 79.7785 96.5735C88.001 91.0794 94.4096 83.2705 98.194 74.1342C101.978 64.9979 102.969 54.9445 101.039 45.2455Z" stroke="#619B8A" stroke-width="4"/>
</svg>
