<svg width="102" height="19" viewBox="0 0 102 19" fill="none" xmlns="http://www.w3.org/2000/svg">
<path d="M0.113636 18V0.545454H2.22727V16.125H10.3409V18H0.113636ZM18.8295 18.2727C17.5682 18.2727 16.4801 17.9943 15.5653 17.4375C14.6562 16.875 13.9545 16.0909 13.4602 15.0852C12.9716 14.0739 12.7273 12.8977 12.7273 11.5568C12.7273 10.2159 12.9716 9.03409 13.4602 8.01136C13.9545 6.98295 14.642 6.18182 15.5227 5.60795C16.4091 5.02841 17.4432 4.73864 18.625 4.73864C19.3068 4.73864 19.9801 4.85227 20.6449 5.07954C21.3097 5.30682 21.9148 5.67614 22.4602 6.1875C23.0057 6.69318 23.4403 7.36364 23.7642 8.19886C24.0881 9.03409 24.25 10.0625 24.25 11.2841V12.1364H14.1591V10.3977H22.2045C22.2045 9.65909 22.0568 9 21.7614 8.42045C21.4716 7.84091 21.0568 7.38352 20.517 7.0483C19.983 6.71307 19.3523 6.54545 18.625 6.54545C17.8239 6.54545 17.1307 6.74432 16.5455 7.14205C15.9659 7.53409 15.5199 8.04545 15.2074 8.67614C14.8949 9.30682 14.7386 9.98295 14.7386 10.7045V11.8636C14.7386 12.8523 14.9091 13.6903 15.25 14.3778C15.5966 15.0597 16.0767 15.5795 16.6903 15.9375C17.304 16.2898 18.017 16.4659 18.8295 16.4659C19.358 16.4659 19.8352 16.392 20.2614 16.2443C20.6932 16.0909 21.0653 15.8636 21.3778 15.5625C21.6903 15.2557 21.9318 14.875 22.1023 14.4205L24.0455 14.9659C23.8409 15.625 23.4972 16.2045 23.0142 16.7045C22.5313 17.1989 21.9347 17.5852 21.2244 17.8636C20.5142 18.1364 19.7159 18.2727 18.8295 18.2727ZM29.321 10.125V18H27.3097V4.90909H29.2528V6.95455H29.4233C29.7301 6.28977 30.196 5.75568 30.821 5.35227C31.446 4.94318 32.2528 4.73864 33.2415 4.73864C34.1278 4.73864 34.9034 4.92045 35.5682 5.28409C36.233 5.64205 36.75 6.1875 37.1193 6.92045C37.4886 7.64773 37.6733 8.56818 37.6733 9.68182V18H35.6619V9.81818C35.6619 8.78977 35.3949 7.98864 34.8608 7.41477C34.3267 6.83523 33.5938 6.54545 32.6619 6.54545C32.0199 6.54545 31.446 6.68466 30.9403 6.96307C30.4403 7.24148 30.0455 7.64773 29.7557 8.18182C29.4659 8.71591 29.321 9.36364 29.321 10.125ZM41.3487 18V4.90909H43.3601V18H41.3487ZM42.3714 2.72727C41.9794 2.72727 41.6413 2.59375 41.3572 2.3267C41.0788 2.05966 40.9396 1.73864 40.9396 1.36364C40.9396 0.988636 41.0788 0.667614 41.3572 0.400568C41.6413 0.133523 41.9794 0 42.3714 0C42.7635 0 43.0987 0.133523 43.3771 0.400568C43.6612 0.667614 43.8033 0.988636 43.8033 1.36364C43.8033 1.73864 43.6612 2.05966 43.3771 2.3267C43.0987 2.59375 42.7635 2.72727 42.3714 2.72727ZM52.3622 18.2727C51.1804 18.2727 50.1435 17.9915 49.2514 17.429C48.3651 16.8665 47.6719 16.0795 47.1719 15.0682C46.6776 14.0568 46.4304 12.875 46.4304 11.5227C46.4304 10.1591 46.6776 8.96875 47.1719 7.9517C47.6719 6.93466 48.3651 6.14489 49.2514 5.58239C50.1435 5.01989 51.1804 4.73864 52.3622 4.73864C53.544 4.73864 54.5781 5.01989 55.4645 5.58239C56.3565 6.14489 57.0497 6.93466 57.544 7.9517C58.044 8.96875 58.294 10.1591 58.294 11.5227C58.294 12.875 58.044 14.0568 57.544 15.0682C57.0497 16.0795 56.3565 16.8665 55.4645 17.429C54.5781 17.9915 53.544 18.2727 52.3622 18.2727ZM52.3622 16.4659C53.2599 16.4659 53.9986 16.2358 54.5781 15.7756C55.1577 15.3153 55.5866 14.7102 55.8651 13.9602C56.1435 13.2102 56.2827 12.3977 56.2827 11.5227C56.2827 10.6477 56.1435 9.83239 55.8651 9.0767C55.5866 8.32102 55.1577 7.71023 54.5781 7.24432C53.9986 6.77841 53.2599 6.54545 52.3622 6.54545C51.4645 6.54545 50.7259 6.77841 50.1463 7.24432C49.5668 7.71023 49.1378 8.32102 48.8594 9.0767C48.581 9.83239 48.4418 10.6477 48.4418 11.5227C48.4418 12.3977 48.581 13.2102 48.8594 13.9602C49.1378 14.7102 49.5668 15.3153 50.1463 15.7756C50.7259 16.2358 51.4645 16.4659 52.3622 16.4659ZM61.3643 18V4.90909H63.3075V6.88636H63.4439C63.6825 6.23864 64.1143 5.71307 64.7393 5.30966C65.3643 4.90625 66.0689 4.70454 66.853 4.70454C67.0007 4.70454 67.1854 4.70739 67.407 4.71307C67.6286 4.71875 67.7962 4.72727 67.9098 4.73864V6.78409C67.8416 6.76705 67.6854 6.74148 67.4411 6.70739C67.2024 6.66761 66.9496 6.64773 66.6825 6.64773C66.0462 6.64773 65.478 6.78125 64.978 7.0483C64.4837 7.30966 64.0916 7.6733 63.8018 8.1392C63.5178 8.59943 63.3757 9.125 63.3757 9.71591V18H61.3643ZM75.3842 18.2727C74.1229 18.2727 73.0348 17.9943 72.12 17.4375C71.2109 16.875 70.5092 16.0909 70.0149 15.0852C69.5263 14.0739 69.282 12.8977 69.282 11.5568C69.282 10.2159 69.5263 9.03409 70.0149 8.01136C70.5092 6.98295 71.1967 6.18182 72.0774 5.60795C72.9638 5.02841 73.9979 4.73864 75.1797 4.73864C75.8615 4.73864 76.5348 4.85227 77.1996 5.07954C77.8643 5.30682 78.4695 5.67614 79.0149 6.1875C79.5604 6.69318 79.995 7.36364 80.3189 8.19886C80.6428 9.03409 80.8047 10.0625 80.8047 11.2841V12.1364H70.7138V10.3977H78.7592C78.7592 9.65909 78.6115 9 78.3161 8.42045C78.0263 7.84091 77.6115 7.38352 77.0717 7.0483C76.5376 6.71307 75.907 6.54545 75.1797 6.54545C74.3786 6.54545 73.6854 6.74432 73.1001 7.14205C72.5206 7.53409 72.0746 8.04545 71.7621 8.67614C71.4496 9.30682 71.2933 9.98295 71.2933 10.7045V11.8636C71.2933 12.8523 71.4638 13.6903 71.8047 14.3778C72.1513 15.0597 72.6314 15.5795 73.245 15.9375C73.8587 16.2898 74.5717 16.4659 75.3842 16.4659C75.9126 16.4659 76.3899 16.392 76.8161 16.2443C77.2479 16.0909 77.62 15.8636 77.9325 15.5625C78.245 15.2557 78.4865 14.875 78.657 14.4205L80.6001 14.9659C80.3956 15.625 80.0518 16.2045 79.5689 16.7045C79.0859 17.1989 78.4893 17.5852 77.7791 17.8636C77.0689 18.1364 76.2706 18.2727 75.3842 18.2727ZM83.8643 18V4.90909H85.8075V6.95455H85.978C86.2507 6.25568 86.6911 5.71307 87.299 5.3267C87.907 4.93466 88.6371 4.73864 89.4893 4.73864C90.353 4.73864 91.0717 4.93466 91.6456 5.3267C92.2251 5.71307 92.6768 6.25568 93.0007 6.95455H93.1371C93.4723 6.27841 93.9751 5.74148 94.6456 5.34375C95.3161 4.94034 96.12 4.73864 97.0575 4.73864C98.228 4.73864 99.1854 5.10511 99.9297 5.83807C100.674 6.56534 101.046 7.69886 101.046 9.23864V18H99.0348V9.23864C99.0348 8.27273 98.7706 7.58239 98.2422 7.16761C97.7138 6.75284 97.0916 6.54545 96.3757 6.54545C95.4553 6.54545 94.7422 6.82386 94.2365 7.38068C93.7308 7.93182 93.478 8.63068 93.478 9.47727V18H91.4325V9.03409C91.4325 8.28977 91.1911 7.69034 90.7081 7.2358C90.2251 6.77557 89.603 6.54545 88.8416 6.54545C88.3189 6.54545 87.8303 6.68466 87.3757 6.96307C86.9268 7.24148 86.5632 7.62784 86.2848 8.12216C86.0121 8.6108 85.8757 9.17614 85.8757 9.81818V18H83.8643Z" fill="#5B483C"/>
</svg>
