<svg width="244" height="192" viewBox="0 0 244 192" fill="none" xmlns="http://www.w3.org/2000/svg">
<path d="M121.5 53.3543L140.758 22.2617C141.567 20.9544 141.257 19.2465 140.04 18.307L121.5 4M121.5 53.3543L102.242 22.2617C101.433 20.9544 101.743 19.2465 102.96 18.307L121.5 4M121.5 53.3543V4M178.876 53.3543C176.946 43.5519 172.595 34.432 166.261 26.8266C164.481 24.6889 161.269 24.7012 159.312 26.6785L145.663 40.4699C143.735 42.4183 143.777 45.5362 145.352 47.7792C147.726 51.1584 149.381 55.02 150.188 59.1205C151.317 64.8539 150.737 70.7968 148.523 76.1975C146.31 81.5983 142.561 86.2144 137.75 89.4622C132.94 92.7099 127.285 94.4433 121.5 94.4433C115.715 94.4433 110.06 92.7099 105.25 89.4621C100.439 86.2144 96.6904 81.5983 94.4765 76.1975C92.2627 70.7968 91.6834 64.8539 92.812 59.1205C93.6192 55.02 95.274 51.1584 97.6476 47.7792C99.2231 45.5362 99.2647 42.4182 97.3366 40.4699L83.6882 26.6784C81.7315 24.7012 78.5187 24.6889 76.7386 26.8266C70.4052 34.432 66.0537 43.5519 64.1241 53.3542C61.8669 64.8211 63.0253 76.7068 67.4531 87.5084C71.8808 98.3099 79.3789 107.542 88.9991 114.038C98.6194 120.533 109.93 124 121.5 124C133.07 124 144.381 120.533 154.001 114.038C163.621 107.542 171.119 98.3099 175.547 87.5084C179.975 76.7068 181.133 64.8211 178.876 53.3543Z" stroke="#619B8A" stroke-width="5"/>
<path d="M4.22727 180V145.091H8.45455V176.25H24.6818V180H4.22727ZM31.2273 180V145.091H52.2955V148.841H35.4545V160.636H51.2045V164.386H35.4545V176.25H52.5682V180H31.2273ZM87.5966 145.091V180H83.5057L64.483 152.591H64.142V180H59.9148V145.091H64.0057L83.0966 172.568H83.4375V145.091H87.5966ZM100.283 145.091V180H96.0554V145.091H100.283ZM138.213 162.545C138.213 166.227 137.548 169.409 136.219 172.091C134.889 174.773 133.065 176.841 130.747 178.295C128.429 179.75 125.781 180.477 122.804 180.477C119.827 180.477 117.179 179.75 114.861 178.295C112.543 176.841 110.719 174.773 109.389 172.091C108.06 169.409 107.395 166.227 107.395 162.545C107.395 158.864 108.06 155.682 109.389 153C110.719 150.318 112.543 148.25 114.861 146.795C117.179 145.341 119.827 144.614 122.804 144.614C125.781 144.614 128.429 145.341 130.747 146.795C133.065 148.25 134.889 150.318 136.219 153C137.548 155.682 138.213 158.864 138.213 162.545ZM134.122 162.545C134.122 159.523 133.616 156.972 132.605 154.892C131.605 152.812 130.247 151.239 128.531 150.17C126.827 149.102 124.918 148.568 122.804 148.568C120.69 148.568 118.776 149.102 117.06 150.17C115.355 151.239 113.997 152.812 112.986 154.892C111.986 156.972 111.486 159.523 111.486 162.545C111.486 165.568 111.986 168.119 112.986 170.199C113.997 172.278 115.355 173.852 117.06 174.92C118.776 175.989 120.69 176.523 122.804 176.523C124.918 176.523 126.827 175.989 128.531 174.92C130.247 173.852 131.605 172.278 132.605 170.199C133.616 168.119 134.122 165.568 134.122 162.545ZM145.321 180V145.091H157.116C159.844 145.091 162.082 145.557 163.832 146.489C165.582 147.409 166.878 148.676 167.719 150.29C168.56 151.903 168.98 153.739 168.98 155.795C168.98 157.852 168.56 159.676 167.719 161.267C166.878 162.858 165.588 164.108 163.849 165.017C162.111 165.915 159.889 166.364 157.185 166.364H147.639V162.545H157.048C158.912 162.545 160.412 162.273 161.548 161.727C162.696 161.182 163.526 160.409 164.037 159.409C164.56 158.398 164.821 157.193 164.821 155.795C164.821 154.398 164.56 153.176 164.037 152.131C163.514 151.085 162.679 150.278 161.531 149.71C160.384 149.131 158.866 148.841 156.98 148.841H149.548V180H145.321ZM161.753 164.318L170.344 180H165.435L156.98 164.318H161.753ZM176.024 180V145.091H197.092V148.841H180.251V160.636H196.001V164.386H180.251V176.25H197.365V180H176.024ZM204.712 145.091H209.757L221.621 174.068H222.03L233.893 145.091H238.939V180H234.984V153.477H234.643L223.734 180H219.916L209.007 153.477H208.666V180H204.712V145.091Z" fill="#619B8A"/>
</svg>
