<svg width="32" height="42" viewBox="0 0 32 42" fill="none" xmlns="http://www.w3.org/2000/svg">
<path d="M7.83333 15.7357V10.7502C7.83333 8.63221 8.65619 6.59704 10.1283 5.07421C13.3384 1.75334 18.6616 1.75334 21.8717 5.07421C23.3438 6.59704 24.1667 8.63221 24.1667 10.7502V15.7357C24.1667 18.1872 23.353 20.5694 21.8533 22.5087C21.8401 22.5257 21.8234 22.5396 21.8043 22.5495C18.1743 24.4271 13.8257 24.4271 10.1957 22.5495C10.1766 22.5396 10.1599 22.5257 10.1467 22.5087C8.64699 20.5694 7.83333 18.1872 7.83333 15.7357Z" stroke="#233D4D" stroke-width="5"/>
<path d="M16 39H5.48207C3.93849 39 2.97675 37.3256 3.75452 35.9923L5.60666 32.8172C6.87836 30.6371 9.57537 29.7466 11.8952 30.7408L14.0304 31.6559C15.2881 32.1949 16.7119 32.1949 17.9696 31.6559L20.1048 30.7408C22.4246 29.7466 25.1216 30.6371 26.3933 32.8172L28.2455 35.9923C29.0232 37.3256 28.0615 39 26.5179 39H16Z" stroke="#233D4D" stroke-width="5"/>
</svg>
