<svg width="171" height="50" viewBox="0 0 171 50" fill="none" xmlns="http://www.w3.org/2000/svg">
<path d="M24 21.3304L30.6975 10.5581C31.5116 9.2487 31.2005 7.53539 29.9781 6.59568L24 2M24 21.3304L17.3025 10.5581C16.4884 9.2487 16.7995 7.53539 18.0219 6.59568L24 2M24 21.3304V2M46.5581 21.3304C45.9986 18.4991 44.9212 15.8132 43.3954 13.4033C41.9113 11.0593 38.6715 11.0784 36.7162 13.0466L35.6323 14.1378C33.6952 16.0877 33.8299 19.2395 34.781 21.8182C34.9925 22.3917 35.1594 22.9836 35.279 23.5889C35.7228 25.8344 35.495 28.1621 34.6246 30.2774C33.7542 32.3927 32.2802 34.2007 30.3891 35.4727C28.4979 36.7447 26.2745 37.4236 24 37.4236C21.7255 37.4236 19.5021 36.7447 17.6109 35.4727C15.7198 34.2006 14.2458 32.3927 13.3754 30.2774C12.505 28.1621 12.2772 25.8344 12.721 23.5889C12.8406 22.9836 13.0075 22.3917 13.219 21.8182C14.1701 19.2395 14.3048 16.0877 12.3677 14.1377L11.2838 13.0466C9.32851 11.0784 6.08869 11.0593 4.60458 13.4033C3.07876 15.8132 2.00142 18.4991 1.44195 21.3304C0.554489 25.8216 1.00996 30.4768 2.75078 34.7074C4.49159 38.938 7.43956 42.554 11.2219 45.0981C15.0042 47.6421 19.451 49 24 49C28.549 49 32.9958 47.6421 36.7781 45.0981C40.5604 42.554 43.5084 38.9381 45.2492 34.7074C46.99 30.4768 47.4455 25.8216 46.5581 21.3304Z" stroke="#5B483C" stroke-width="2"/>
<path d="M68.1136 34V16.5455H70.2273V32.125H78.3409V34H68.1136ZM86.8295 34.2727C85.5682 34.2727 84.4801 33.9943 83.5653 33.4375C82.6562 32.875 81.9545 32.0909 81.4602 31.0852C80.9716 30.0739 80.7273 28.8977 80.7273 27.5568C80.7273 26.2159 80.9716 25.0341 81.4602 24.0114C81.9545 22.983 82.642 22.1818 83.5227 21.608C84.4091 21.0284 85.4432 20.7386 86.625 20.7386C87.3068 20.7386 87.9801 20.8523 88.6449 21.0795C89.3097 21.3068 89.9148 21.6761 90.4602 22.1875C91.0057 22.6932 91.4403 23.3636 91.7642 24.1989C92.0881 25.0341 92.25 26.0625 92.25 27.2841V28.1364H82.1591V26.3977H90.2045C90.2045 25.6591 90.0568 25 89.7614 24.4205C89.4716 23.8409 89.0568 23.3835 88.517 23.0483C87.983 22.7131 87.3523 22.5455 86.625 22.5455C85.8239 22.5455 85.1307 22.7443 84.5455 23.142C83.9659 23.5341 83.5199 24.0455 83.2074 24.6761C82.8949 25.3068 82.7386 25.983 82.7386 26.7045V27.8636C82.7386 28.8523 82.9091 29.6903 83.25 30.3778C83.5966 31.0597 84.0767 31.5795 84.6903 31.9375C85.304 32.2898 86.017 32.4659 86.8295 32.4659C87.358 32.4659 87.8352 32.392 88.2614 32.2443C88.6932 32.0909 89.0653 31.8636 89.3778 31.5625C89.6903 31.2557 89.9318 30.875 90.1023 30.4205L92.0455 30.9659C91.8409 31.625 91.4972 32.2045 91.0142 32.7045C90.5313 33.1989 89.9347 33.5852 89.2244 33.8636C88.5142 34.1364 87.7159 34.2727 86.8295 34.2727ZM97.321 26.125V34H95.3097V20.9091H97.2528V22.9545H97.4233C97.7301 22.2898 98.196 21.7557 98.821 21.3523C99.446 20.9432 100.253 20.7386 101.241 20.7386C102.128 20.7386 102.903 20.9205 103.568 21.2841C104.233 21.642 104.75 22.1875 105.119 22.9205C105.489 23.6477 105.673 24.5682 105.673 25.6818V34H103.662V25.8182C103.662 24.7898 103.395 23.9886 102.861 23.4148C102.327 22.8352 101.594 22.5455 100.662 22.5455C100.02 22.5455 99.446 22.6847 98.9403 22.9631C98.4403 23.2415 98.0455 23.6477 97.7557 24.1818C97.4659 24.7159 97.321 25.3636 97.321 26.125ZM109.349 34V20.9091H111.36V34H109.349ZM110.371 18.7273C109.979 18.7273 109.641 18.5938 109.357 18.3267C109.079 18.0597 108.94 17.7386 108.94 17.3636C108.94 16.9886 109.079 16.6676 109.357 16.4006C109.641 16.1335 109.979 16 110.371 16C110.763 16 111.099 16.1335 111.377 16.4006C111.661 16.6676 111.803 16.9886 111.803 17.3636C111.803 17.7386 111.661 18.0597 111.377 18.3267C111.099 18.5938 110.763 18.7273 110.371 18.7273ZM120.362 34.2727C119.18 34.2727 118.143 33.9915 117.251 33.429C116.365 32.8665 115.672 32.0795 115.172 31.0682C114.678 30.0568 114.43 28.875 114.43 27.5227C114.43 26.1591 114.678 24.9687 115.172 23.9517C115.672 22.9347 116.365 22.1449 117.251 21.5824C118.143 21.0199 119.18 20.7386 120.362 20.7386C121.544 20.7386 122.578 21.0199 123.464 21.5824C124.357 22.1449 125.05 22.9347 125.544 23.9517C126.044 24.9687 126.294 26.1591 126.294 27.5227C126.294 28.875 126.044 30.0568 125.544 31.0682C125.05 32.0795 124.357 32.8665 123.464 33.429C122.578 33.9915 121.544 34.2727 120.362 34.2727ZM120.362 32.4659C121.26 32.4659 121.999 32.2358 122.578 31.7756C123.158 31.3153 123.587 30.7102 123.865 29.9602C124.143 29.2102 124.283 28.3977 124.283 27.5227C124.283 26.6477 124.143 25.8324 123.865 25.0767C123.587 24.321 123.158 23.7102 122.578 23.2443C121.999 22.7784 121.26 22.5455 120.362 22.5455C119.464 22.5455 118.726 22.7784 118.146 23.2443C117.567 23.7102 117.138 24.321 116.859 25.0767C116.581 25.8324 116.442 26.6477 116.442 27.5227C116.442 28.3977 116.581 29.2102 116.859 29.9602C117.138 30.7102 117.567 31.3153 118.146 31.7756C118.726 32.2358 119.464 32.4659 120.362 32.4659ZM129.364 34V20.9091H131.308V22.8864H131.444C131.683 22.2386 132.114 21.7131 132.739 21.3097C133.364 20.9062 134.069 20.7045 134.853 20.7045C135.001 20.7045 135.185 20.7074 135.407 20.7131C135.629 20.7187 135.796 20.7273 135.91 20.7386V22.7841C135.842 22.767 135.685 22.7415 135.441 22.7074C135.202 22.6676 134.95 22.6477 134.683 22.6477C134.046 22.6477 133.478 22.7812 132.978 23.0483C132.484 23.3097 132.092 23.6733 131.802 24.1392C131.518 24.5994 131.376 25.125 131.376 25.7159V34H129.364ZM143.384 34.2727C142.123 34.2727 141.035 33.9943 140.12 33.4375C139.211 32.875 138.509 32.0909 138.015 31.0852C137.526 30.0739 137.282 28.8977 137.282 27.5568C137.282 26.2159 137.526 25.0341 138.015 24.0114C138.509 22.983 139.197 22.1818 140.077 21.608C140.964 21.0284 141.998 20.7386 143.18 20.7386C143.862 20.7386 144.535 20.8523 145.2 21.0795C145.864 21.3068 146.469 21.6761 147.015 22.1875C147.56 22.6932 147.995 23.3636 148.319 24.1989C148.643 25.0341 148.805 26.0625 148.805 27.2841V28.1364H138.714V26.3977H146.759C146.759 25.6591 146.612 25 146.316 24.4205C146.026 23.8409 145.612 23.3835 145.072 23.0483C144.538 22.7131 143.907 22.5455 143.18 22.5455C142.379 22.5455 141.685 22.7443 141.1 23.142C140.521 23.5341 140.075 24.0455 139.762 24.6761C139.45 25.3068 139.293 25.983 139.293 26.7045V27.8636C139.293 28.8523 139.464 29.6903 139.805 30.3778C140.151 31.0597 140.631 31.5795 141.245 31.9375C141.859 32.2898 142.572 32.4659 143.384 32.4659C143.913 32.4659 144.39 32.392 144.816 32.2443C145.248 32.0909 145.62 31.8636 145.933 31.5625C146.245 31.2557 146.487 30.875 146.657 30.4205L148.6 30.9659C148.396 31.625 148.052 32.2045 147.569 32.7045C147.086 33.1989 146.489 33.5852 145.779 33.8636C145.069 34.1364 144.271 34.2727 143.384 34.2727ZM151.864 34V20.9091H153.808V22.9545H153.978C154.251 22.2557 154.691 21.7131 155.299 21.3267C155.907 20.9347 156.637 20.7386 157.489 20.7386C158.353 20.7386 159.072 20.9347 159.646 21.3267C160.225 21.7131 160.677 22.2557 161.001 22.9545H161.137C161.472 22.2784 161.975 21.7415 162.646 21.3438C163.316 20.9403 164.12 20.7386 165.058 20.7386C166.228 20.7386 167.185 21.1051 167.93 21.8381C168.674 22.5653 169.046 23.6989 169.046 25.2386V34H167.035V25.2386C167.035 24.2727 166.771 23.5824 166.242 23.1676C165.714 22.7528 165.092 22.5455 164.376 22.5455C163.455 22.5455 162.742 22.8239 162.237 23.3807C161.731 23.9318 161.478 24.6307 161.478 25.4773V34H159.433V25.0341C159.433 24.2898 159.191 23.6903 158.708 23.2358C158.225 22.7756 157.603 22.5455 156.842 22.5455C156.319 22.5455 155.83 22.6847 155.376 22.9631C154.927 23.2415 154.563 23.6278 154.285 24.1222C154.012 24.6108 153.876 25.1761 153.876 25.8182V34H151.864Z" fill="#5B483C"/>
</svg>
