<svg width="45" height="44" viewBox="0 0 45 44" fill="none" xmlns="http://www.w3.org/2000/svg">
<path d="M31.5667 41.8386H31.5688C33.3049 41.8386 34.9895 41.488 36.6051 40.8174C40.6103 39.1517 43.6131 35.4865 43.4968 30.8486C43.4395 28.7079 43.4532 26.5476 43.4666 24.4184C43.4724 23.4982 43.4782 22.5839 43.4782 21.6794V21.6607V21.642V21.6233V21.6046V21.5859V21.5673V21.5486V21.5299V21.5112V21.4925V21.4738V21.4551V21.4365V21.4178V21.3991V21.3804V21.3617V21.343V21.3243V21.3057V21.287V21.2683V21.2496V21.2309V21.2122V21.1935V21.1749V21.1562V21.1375V21.1188V21.1001V21.0814V21.0627V21.0441V21.0254V21.0067V20.988V20.9693V20.9506V20.9319V20.9133V20.8946V20.8759V20.8572V20.8385V20.8198V20.8012V20.7825V20.7638V20.7451V20.7264V20.7077V20.689V20.6704V20.6517V20.633V20.6143V20.5956V20.5769V20.5582V20.5396V20.5209V20.5022V20.4835V20.4648V20.4461V20.4274V20.4088V20.3901V20.3714V20.3527V20.334V20.3153V20.2967V20.278V20.2593V20.2406V20.2219V20.2032V20.1845V20.1659V20.1472V20.1285V20.1098V20.0911V20.0724V20.0538V20.0351V20.0164V19.9977V19.979V19.9603V19.9417V19.923V19.9043V19.8856V19.8669V19.8482V19.8295V19.8109V19.7922V19.7735V19.7548V19.7361V19.7174V19.6988V19.6801V19.6614V19.6427V19.624V19.6053V19.5867V19.568V19.5493V19.5306V19.5119V19.4932V19.4746V19.4559V19.4372V19.4185V19.3998V19.3811V19.3625V19.3438V19.3251V19.3064V19.2877V19.2691V19.2504V19.2317V19.213V19.1943V19.1756V19.157V19.1383V19.1196V19.1009V19.0822V19.0635V19.0449V19.0262V19.0075V18.9888V18.9701V18.9515V18.9328V18.9141V18.8954V18.8767V18.8581V18.8394V18.8207V18.802V18.7833V18.7646V18.746V18.7273V18.7086V18.6899V18.6712V18.6526V18.6339V18.6152V18.5965V18.5778V18.5592V18.5405V18.5218V18.5031V18.4844V18.4658V18.4471V18.4284V18.4097V18.391V18.3724V18.3537V18.335V18.3163V18.2976V18.279V18.2603V18.2416V18.2229V18.2042V18.1856V18.1669V18.1482V18.1295V18.1108V18.0922V18.0735V18.0548V18.0361V18.0175V17.9988V17.9801V17.9614V17.9427V17.9241V17.9054V17.8867V17.868V17.8494V17.8307V17.812V17.7933V17.7746V17.756V17.7373V17.7186V17.6999V17.6813V17.6626V17.6439V17.6252V17.6066V17.5879V17.5692V17.5505V17.5319V17.5132V17.4945V17.4758V17.4571V17.4385V17.4198V17.4011V17.3824V17.3638V17.3451V17.3264V17.3077V17.2891V17.2704V17.2517V17.233V17.2144V17.1957V17.177V17.1583V17.1397V17.121V17.1023V17.0836V17.065V17.0463V17.0276V17.009V16.9903V16.9716V16.9529V16.9343V16.9156V16.8969V16.8782V16.8596V16.8409V16.8222V16.8036V16.7849V16.7662V16.7475V16.7289V16.7102V16.6915V16.6728V16.6542V16.6355V16.6168V16.5982V16.5795V16.5608V16.5421V16.5235V16.5048V16.4861V16.4675V16.4488V16.4301V16.4115V16.3928V16.3741V16.3554V16.3368V16.3181V16.2994V16.2808V16.2621V16.2434V16.2248V16.2061V16.1874V16.1687V16.1501V16.1314V16.1127V16.0941V16.0754V16.0567V16.0381V16.0194V16.0007V15.9821V15.9634V15.9447V15.9261V15.9074V15.8887V15.8701V15.8514V15.8327V15.8141V15.7954V15.7767V15.7581V15.7394V15.7207V15.7021V15.6834V15.6647V15.6461V15.6274V15.6087V15.5901V15.5714V15.5527V15.5341V15.5154V15.4968V15.4781V15.4594V15.4408V15.4221V15.4034V15.3848V15.3661V15.3474V15.3288V15.3101V15.2915V15.2728V15.2541V15.2355V15.2168V15.1981V15.1795V15.1608V15.1422V15.1235V15.1048V15.0862V15.0675V15.0488V15.0302V15.0115V14.9929V14.9742V14.9555V14.9369V14.9182V14.8996V14.8809V14.8622V14.8436V14.8249V14.8063V14.7876V14.7689V14.7503V14.7316V14.713V14.6943V14.6757V14.657V14.6383V14.6197V14.601V14.5824V14.5637V14.545V14.5264V14.5077V14.4891V14.4704V14.4518V14.4331V14.4144V14.3958V14.3771V14.3585V14.3398V14.3212V14.3025V14.2839V14.2652V14.2465V14.2279V14.2092V14.1906V14.1719V14.1533V14.1346V14.116V14.0973V14.0787V14.06V14.0414V14.0227V14.0041V13.9854V13.9667V13.9481V13.9294V13.9108V13.8921V13.8735V13.8548V13.8362V13.8175V13.7989V13.7802V13.7616V13.7429V13.7243V13.7056V13.687V13.6683V13.6497V13.631V13.6124V13.5937V13.5751V13.5564V13.5378V13.5191V13.5005V13.4818V13.4632V13.4445V13.4259V13.4072V13.3886V13.37V13.3513V13.3327V13.314V13.2954V13.2767V13.2581V13.2394V13.2208V13.2021V13.1835V13.1648V13.1462V13.1276V13.1089V13.0903V13.0716V13.053V13.0343V13.0157V12.997V12.9784V12.9598V12.9411V12.9225V12.9038V12.8852V12.8665V12.8479V12.8293V12.8106V12.792V12.7733V12.7547V12.7361V12.7174V12.6988V12.6801V12.6615V12.6429V12.6242V12.6056V12.5869V12.5683V12.5497V12.531V12.5124V12.4937V12.4751V12.4565V12.4378V12.4192V12.4005V12.3819V12.3633V12.3446V12.326V12.3074V12.2887V12.2701V12.2515V12.2328V12.2142V12.1955V12.1769V12.1583V12.1396V12.121C43.4782 9.92859 42.8247 7.96992 41.4695 6.25287C38.9589 3.0791 35.5836 1.56066 31.4128 1.52884L31.4109 1.52883C27.2044 1.49145 22.9973 1.49857 18.7828 1.5057C17.0954 1.50855 15.4069 1.51141 13.7168 1.51141C11.6569 1.51976 9.73667 1.91076 7.9945 2.79099C5.88321 3.86442 4.3172 5.18287 3.27609 6.74434C2.24149 8.29604 1.66892 10.1712 1.66892 12.4618V12.4985V12.5352V12.5719V12.6086V12.6453V12.682V12.7187V12.7554V12.7921V12.8288V12.8655V12.9022V12.9389V12.9756V13.0123V13.049V13.0857V13.1224V13.1591V13.1958V13.2325V13.2692V13.3059V13.3426V13.3793V13.416V13.4527V13.4894V13.5261V13.5628V13.5995V13.6362V13.6729V13.7096V13.7463V13.783V13.8197V13.8564V13.8931V13.9298V13.9665V14.0032V14.0399V14.0766V14.1133V14.15V14.1867V14.2234V14.2601V14.2968V14.3335V14.3702V14.4069V14.4436V14.4803V14.517V14.5537V14.5904V14.6271V14.6638V14.7005V14.7372V14.7739V14.8106V14.8473V14.884V14.9206V14.9573V14.994V15.0307V15.0674V15.1041V15.1408V15.1775V15.2142V15.2509V15.2876V15.3243V15.361V15.3977V15.4344V15.471V15.5077V15.5444V15.5811V15.6178V15.6545V15.6912V15.7279V15.7646V15.8013V15.838V15.8746V15.9113V15.948V15.9847V16.0214V16.0581V16.0948V16.1315V16.1682V16.2049V16.2416V16.2782V16.3149V16.3516V16.3883V16.425V16.4617V16.4984V16.5351V16.5718V16.6084V16.6451V16.6818V16.7185V16.7552V16.7919V16.8286V16.8653V16.9019V16.9386V16.9753V17.012V17.0487V17.0854V17.1221V17.1588V17.1954V17.2321V17.2688V17.3055V17.3422V17.3789V17.4156V17.4522V17.4889V17.5256V17.5623V17.599V17.6357V17.6724V17.709V17.7457V17.7824V17.8191V17.8558V17.8925V17.9292V17.9658V18.0025V18.0392V18.0759V18.1126V18.1493V18.1859V18.2226V18.2593V18.296V18.3327V18.3694V18.4061V18.4427V18.4794V18.5161V18.5528V18.5895V18.6262V18.6628V18.6995V18.7362V18.7729V18.8096V18.8463V18.8829V18.9196V18.9563V18.993V19.0297V19.0663V19.103V19.1397V19.1764V19.2131V19.2498V19.2864V19.3231V19.3598V19.3965V19.4332V19.4699V19.5065V19.5432V19.5799V19.6166V19.6533V19.6899V19.7266V19.7633V19.8V19.8367V19.8734V19.91V19.9467V19.9834V20.0201V20.0568V20.0934V20.1301V20.1668V20.2035V20.2402V20.2768V20.3135V20.3502V20.3869V20.4236V20.4603V20.4969V20.5336V20.5703V20.607V20.6437V20.6803V20.717V20.7537V20.7904V20.8271V20.8637V20.9004V20.9371V20.9738V21.0105V21.0471V21.0838V21.1205V21.1572V21.1939V21.2305V21.2672V21.3039V21.3406V21.3773V21.414V21.4506V21.4873V21.524V21.5607V21.5974V21.634V21.6707V21.7074V21.7441V21.7808V21.8174V21.8541V21.8908V21.9275V21.9642V22.0008V22.0375V22.0742V22.1109V22.1476V22.1842V22.2209V22.2576V22.2943V22.331V22.3676V22.4043V22.441V22.4777V22.5144V22.551V22.5877V22.6244V22.6611V22.6978V22.7344V22.7711V22.8078V22.8445V22.8812V22.9179V22.9545V22.9912V23.0279V23.0646V23.1013V23.1379V23.1746V23.2113V23.248V23.2847V23.3213V23.358V23.3947V23.4314V23.4681V23.5047V23.5414V23.5781V23.6148V23.6515V23.6882V23.7248V23.7615V23.7982V23.8349V23.8716V23.9082V23.9449V23.9816V24.0183V24.055V24.0916V24.1283V24.165V24.2017V24.2384V24.2751V24.3117V24.3484V24.3851V24.4218V24.4585V24.4952V24.5318V24.5685V24.6052V24.6419V24.6786V24.7152V24.7519V24.7886V24.8253V24.862V24.8987V24.9353V24.972V25.0087V25.0454V25.0821V25.1188V25.1554V25.1921V25.2288V25.2655V25.3022V25.3389V25.3755V25.4122V25.4489V25.4856V25.5223V25.559V25.5957V25.6323V25.669V25.7057V25.7424V25.7791V25.8158V25.8524V25.8891V25.9258V25.9625V25.9992V26.0359V26.0726V26.1092V26.1459V26.1826V26.2193V26.256V26.2927V26.3294V26.366V26.4027V26.4394V26.4761V26.5128V26.5495V26.5862V26.6229V26.6595V26.6962V26.7329V26.7696V26.8063V26.843V26.8797V26.9164V26.953V26.9897V27.0264V27.0631V27.0998V27.1365V27.1732V27.2099V27.2465V27.2832V27.3199V27.3566V27.3933V27.43V27.4667V27.5034V27.5401V27.5767V27.6134V27.6501V27.6868V27.7235V27.7602V27.7969V27.8336V27.8703V27.907V27.9437V27.9803V28.017V28.0537V28.0904V28.1271V28.1638V28.2005V28.2372V28.2739V28.3106V28.3473V28.384V28.4207V28.4573V28.494V28.5307V28.5674V28.6041V28.6408V28.6775V28.7142V28.7509V28.7876V28.8243V28.861V28.8977V28.9344V28.9711V29.0078V29.0445V29.0811V29.1178V29.1545V29.1912V29.2279V29.2646V29.3013V29.338V29.3747V29.4114V29.4481V29.4848V29.5215V29.5582V29.5949V29.6316V29.6683V29.705V29.7417V29.7784V29.8151V29.8518V29.8885V29.9252V29.9619V29.9986V30.0353V30.072V30.1087V30.1454V30.1821V30.2188V30.2555V30.2922V30.3289V30.3656V30.4023V30.439V30.4757V30.5124V30.5491V30.5858V30.6225V30.6592V30.6959V30.7326V30.7693V30.806V30.8427V30.8794V30.9161V30.9528V30.9895V31.0262V31.063V31.0997V31.1364V31.1731V31.2098V31.2465C1.66892 33.3098 2.25327 35.1778 3.47115 36.8286L31.5667 41.8386ZM31.5667 41.8386C29.9352 41.8409 28.3071 41.8483 26.6813 41.8556M31.5667 41.8386L26.6813 41.8556M26.6813 41.8556C22.2244 41.8756 17.7854 41.8956 13.3442 41.8127M26.6813 41.8556L13.3442 41.8127M13.3442 41.8127C9.20462 41.7336 5.88246 40.0873 3.47215 36.8299L13.3162 43.3124L13.3448 41.8127C13.3446 41.8127 13.3444 41.8127 13.3442 41.8127Z" stroke="black" stroke-width="3"/>
<path d="M12.9731 20.8824L12.9731 20.8823C12.9656 16.2783 16.9555 12.3721 21.991 12.3721L21.9932 12.3721C27.0386 12.3645 31.0186 16.2557 31.0269 20.9123C31.0262 25.559 27.0551 29.4591 22.008 29.4674C16.9468 29.4669 12.9807 25.5866 12.9731 20.8824Z" stroke="black" stroke-width="3"/>
<path d="M33.7467 7.81396C34.9665 7.81396 35.9605 8.81889 35.9605 10.051C35.9514 11.2831 34.9485 12.2793 33.7286 12.2706C32.5268 12.2618 31.5419 11.2657 31.5419 10.0597C31.5329 8.82763 32.5268 7.81396 33.7467 7.81396Z" fill="black"/>
</svg>
