<svg width="54" height="47" viewBox="0 0 54 47" fill="none" xmlns="http://www.w3.org/2000/svg">
<path d="M24.8086 32.4865L44.0872 9.97506C44.2736 9.75739 44.0068 9.44823 43.7642 9.60084L14.9416 27.7338M24.8086 32.4865L19.8751 44.3682M24.8086 32.4865L29.7422 36.0127M14.9416 27.7338L1.97337 22.0552C1.60954 21.8959 1.56068 21.6497 1.91755 21.4754C6.16396 19.4011 34.2988 8.05508 50.2742 1.66693C51.0023 1.37578 51.7657 1.99843 51.6286 2.77051L44.203 44.5903C44.0745 45.3142 43.235 45.6566 42.6369 45.2291L29.7422 36.0127M14.9416 27.7338L19.8751 44.3682M19.8751 44.3682L29.7422 36.0127" stroke="black" stroke-width="3" stroke-linecap="round"/>
</svg>
