<svg width="58" height="44" viewBox="0 0 58 44" fill="none" xmlns="http://www.w3.org/2000/svg">
<path d="M19.6009 43.3732C14.0583 43.3732 8.56727 41.8894 3.72324 39.083L0.269348 37.0827L4.294 37.1483C4.42434 37.1546 4.63425 37.165 4.96478 37.165C6.49681 37.165 11.3774 36.9265 16.3817 34.1953C12.6199 33.1134 9.51145 30.3009 8.23138 26.6188L7.59729 24.7955L9.32432 25.2297C6.55628 23.1732 4.74532 20.0118 4.54714 16.4881L4.45232 14.8013L6.05337 15.4771C6.3452 15.601 6.64222 15.7104 6.94377 15.805C4.66993 12.7269 3.29387 7.9704 6.16326 2.91803L6.95349 1.52577L7.95798 2.78258C12.7707 8.80028 19.9068 12.4698 27.6889 12.9737C27.6415 12.5061 27.6082 12.0761 27.6082 11.9417C27.6082 6.35616 32.0031 0.57907 39.3568 0.57907C42.4436 0.57907 45.4152 1.76508 47.6041 3.85291C50.538 3.18651 53.3417 1.53193 53.3719 1.5141L55.9149 0L54.9545 2.73543C54.4936 4.04539 53.7917 5.2523 52.8916 6.3061C53.3826 6.15088 53.8649 5.97282 54.3613 5.76364L57.4158 4.32034L56.1324 6.98611C55.073 9.18849 53.3062 11.0056 51.112 12.1676C51.5943 19.4577 48.4945 27.5912 42.9186 33.5642C38.7798 37.9991 31.409 43.2992 19.7972 43.3711L19.6009 43.3732ZM8.28398 39.0091C11.8736 40.5075 15.7237 41.2896 19.5997 41.2896L19.7838 41.2886C30.6107 41.222 37.4723 36.2925 41.3204 32.169C46.6864 26.42 49.5957 18.5592 48.9108 11.6535L48.8386 10.9205L49.5277 10.6102C50.6204 10.1177 51.5991 9.43363 52.4207 8.60164C51.5013 8.82652 50.5204 8.99422 49.3898 9.12643L48.564 9.22332L47.9202 7.64473L48.6696 7.08656C49.7193 6.49194 50.6345 5.71731 51.3741 4.8103C50.2038 5.29248 48.8224 5.76413 47.4411 6.013L46.8511 6.11928L46.4473 5.69025C44.632 3.76379 42.0491 2.66009 39.3575 2.66009C33.3518 2.66009 29.7622 7.3782 29.7622 11.9401C29.7622 12.216 29.9043 13.4719 29.9549 13.7946L30.4437 15.1389L28.8891 15.1067C20.5556 14.9328 12.8027 11.4007 7.36007 5.35599C5.20669 10.8249 8.82224 15.1942 10.5491 16.503L13.0739 18.418L9.86644 18.3638C8.86195 18.3472 7.8789 18.2149 6.92601 17.9692C7.77336 21.6241 10.76 24.5606 14.6403 25.3665L18.8877 26.2495L14.7059 27.3877C13.977 27.5855 13.1501 27.6855 12.248 27.6855C11.826 27.6855 11.4223 27.6636 11.0497 27.6303C12.7315 30.4939 15.8634 32.4182 19.3282 32.5817L22.3557 32.7254L19.9142 34.4608C15.7292 37.4378 11.3881 38.5843 8.28398 39.0091Z" fill="black"/>
</svg>
