<svg width="100" height="20" viewBox="0 0 100 20" fill="none" xmlns="http://www.w3.org/2000/svg">
<path d="M10.2538 1.4781C10.4027 1.01576 11.0568 1.01576 11.2057 1.4781L12.843 6.56308C12.9095 6.76973 13.1018 6.90983 13.3189 6.90983H18.627C19.1102 6.90983 19.3124 7.52733 18.9226 7.81307L14.6206 10.9671C14.4469 11.0944 14.3743 11.3186 14.4402 11.5236L16.0817 16.6212C16.2302 17.0827 15.701 17.4644 15.3101 17.1777L11.0254 14.0364C10.8494 13.9074 10.6101 13.9074 10.4341 14.0364L6.14939 17.1777C5.75842 17.4644 5.22923 17.0827 5.37782 16.6212L7.01922 11.5236C7.08522 11.3186 7.01258 11.0944 6.83892 10.9671L2.53685 7.81307C2.14711 7.52733 2.34922 6.90983 2.83248 6.90983H8.14054C8.35764 6.90983 8.54993 6.76973 8.61647 6.56308L10.2538 1.4781Z" fill="#5B483C"/>
<path d="M30.0736 1.4781C30.2225 1.01576 30.8766 1.01576 31.0255 1.4781L32.6628 6.56308C32.7294 6.76973 32.9217 6.90983 33.1388 6.90983H38.4468C38.9301 6.90983 39.1322 7.52733 38.7424 7.81307L34.4404 10.9671C34.2667 11.0944 34.1941 11.3186 34.2601 11.5236L35.9015 16.6212C36.0501 17.0827 35.5209 17.4644 35.1299 17.1777L30.8452 14.0364C30.6692 13.9074 30.4299 13.9074 30.2539 14.0364L25.9692 17.1777C25.5782 17.4644 25.0491 17.0827 25.1976 16.6212L26.839 11.5236C26.905 11.3186 26.8324 11.0944 26.6587 10.9671L22.3567 7.81307C21.9669 7.52733 22.169 6.90983 22.6523 6.90983H27.9604C28.1775 6.90983 28.3698 6.76973 28.4363 6.56308L30.0736 1.4781Z" fill="#5B483C"/>
<path d="M49.8934 1.4781C50.0423 1.01576 50.6965 1.01576 50.8453 1.4781L52.4826 6.56308C52.5492 6.76973 52.7415 6.90983 52.9586 6.90983H58.2666C58.7499 6.90983 58.952 7.52733 58.5623 7.81307L54.2602 10.9671C54.0865 11.0944 54.0139 11.3186 54.0799 11.5236L55.7213 16.6212C55.8699 17.0827 55.3407 17.4644 54.9497 17.1777L50.665 14.0364C50.489 13.9074 50.2497 13.9074 50.0737 14.0364L45.789 17.1777C45.3981 17.4644 44.8689 17.0827 45.0175 16.6212L46.6589 11.5236C46.7249 11.3186 46.6522 11.0944 46.4786 10.9671L42.1765 7.81307C41.7868 7.52733 41.9889 6.90983 42.4721 6.90983H47.7802C47.9973 6.90983 48.1896 6.76973 48.2561 6.56308L49.8934 1.4781Z" fill="#5B483C"/>
<path d="M69.7133 1.4781C69.8621 1.01576 70.5163 1.01576 70.6651 1.4781L72.3025 6.56308C72.369 6.76973 72.5613 6.90983 72.7784 6.90983H78.0865C78.5697 6.90983 78.7718 7.52733 78.3821 7.81307L74.08 10.9671C73.9064 11.0944 73.8337 11.3186 73.8997 11.5236L75.5411 16.6212C75.6897 17.0827 75.1605 17.4644 74.7696 17.1777L70.4848 14.0364C70.3089 13.9074 70.0695 13.9074 69.8936 14.0364L65.6089 17.1777C65.2179 17.4644 64.6887 17.0827 64.8373 16.6212L66.4787 11.5236C66.5447 11.3186 66.472 11.0944 66.2984 10.9671L61.9963 7.81307C61.6066 7.52733 61.8087 6.90983 62.292 6.90983H67.6C67.8171 6.90983 68.0094 6.76973 68.0759 6.56308L69.7133 1.4781Z" fill="#5B483C"/>
<path d="M89.5331 1.4781C89.682 1.01576 90.3361 1.01576 90.485 1.4781L92.1223 6.56308C92.1888 6.76973 92.3811 6.90983 92.5982 6.90983H97.9063C98.3895 6.90983 98.5917 7.52733 98.2019 7.81307L93.8998 10.9671C93.7262 11.0944 93.6535 11.3186 93.7195 11.5236L95.3609 16.6212C95.5095 17.0827 94.9803 17.4644 94.5894 17.1777L90.3047 14.0364C90.1287 13.9074 89.8894 13.9074 89.7134 14.0364L85.4287 17.1777C85.0377 17.4644 84.5085 17.0827 84.6571 16.6212L86.2985 11.5236C86.3645 11.3186 86.2919 11.0944 86.1182 10.9671L81.8161 7.81307C81.4264 7.52733 81.6285 6.90983 82.1118 6.90983H87.4198C87.6369 6.90983 87.8292 6.76973 87.8958 6.56308L89.5331 1.4781Z" fill="#5B483C"/>
</svg>
