<svg width="54" height="47" viewBox="0 0 54 47" fill="none" xmlns="http://www.w3.org/2000/svg">
<path d="M24.8087 32.4867L44.0872 9.97531C44.2736 9.75763 44.0068 9.44847 43.7642 9.60108L14.9417 27.734M24.8087 32.4867L19.8752 44.3684M24.8087 32.4867L29.7422 36.0129M14.9417 27.734L1.9734 22.0554C1.60957 21.8961 1.56071 21.65 1.91758 21.4757C6.16399 19.4013 34.2989 8.05533 50.2742 1.66718C51.0023 1.37603 51.7657 1.99867 51.6286 2.77075L44.203 44.5906C44.0745 45.3144 43.2351 45.6568 42.6369 45.2293L29.7422 36.0129M14.9417 27.734L19.8752 44.3684M19.8752 44.3684L29.7422 36.0129" stroke="#619B8A" stroke-width="3" stroke-linecap="round"/>
</svg>
