<svg width="58" height="44" viewBox="0 0 58 44" fill="none" xmlns="http://www.w3.org/2000/svg">
<path d="M19.6008 43.3732C14.0582 43.3732 8.56721 41.8894 3.72318 39.083L0.269287 37.0827L4.29394 37.1483C4.42428 37.1546 4.63419 37.165 4.96472 37.165C6.49675 37.165 11.3773 36.9265 16.3816 34.1953C12.6198 33.1134 9.51139 30.3009 8.23132 26.6188L7.59723 24.7955L9.32426 25.2297C6.55622 23.1732 4.74526 20.0118 4.54708 16.4881L4.45226 14.8013L6.05331 15.4771C6.34514 15.601 6.64216 15.7104 6.94371 15.805C4.66987 12.7269 3.29381 7.9704 6.1632 2.91803L6.95343 1.52577L7.95791 2.78258C12.7706 8.80028 19.9067 12.4698 27.6888 12.9737C27.6414 12.5061 27.6081 12.0761 27.6081 11.9417C27.6081 6.35616 32.003 0.57907 39.3567 0.57907C42.4436 0.57907 45.4152 1.76508 47.6041 3.85291C50.5379 3.18651 53.3417 1.53193 53.3718 1.5141L55.9149 0L54.9545 2.73543C54.4936 4.04539 53.7917 5.2523 52.8915 6.3061C53.3826 6.15088 53.8649 5.97281 54.3612 5.76364L57.4157 4.32034L56.1323 6.98611C55.0729 9.18849 53.3062 11.0056 51.1119 12.1676C51.5942 19.4577 48.4945 27.5912 42.9185 33.5642C38.7798 37.9991 31.4089 43.2992 19.7972 43.3711L19.6008 43.3732ZM8.28392 39.0091C11.8735 40.5075 15.7236 41.2896 19.5997 41.2896L19.7838 41.2886C30.6107 41.222 37.4722 36.2925 41.3203 32.169C46.6864 26.42 49.5956 18.5592 48.9108 11.6535L48.8386 10.9205L49.5276 10.6102C50.6204 10.1177 51.5991 9.43363 52.4206 8.60164C51.5012 8.82653 50.5204 8.99422 49.3897 9.12643L48.564 9.22332L47.9202 7.64473L48.6695 7.08656C49.7193 6.49194 50.6344 5.71731 51.3741 4.8103C50.2037 5.29248 48.8223 5.76413 47.4411 6.013L46.851 6.11928L46.4473 5.69025C44.632 3.76379 42.0491 2.66009 39.3574 2.66009C33.3517 2.66009 29.7622 7.3782 29.7622 11.9401C29.7622 12.216 29.9042 13.4719 29.9548 13.7946L30.4437 15.1389L28.889 15.1067C20.5556 14.9328 12.8026 11.4007 7.36001 5.35599C5.20663 10.8249 8.82218 15.1942 10.549 16.503L13.0738 18.418L9.86638 18.3638C8.86189 18.3472 7.87884 18.2149 6.92595 17.9692C7.7733 21.6241 10.76 24.5606 14.6402 25.3665L18.8877 26.2495L14.7059 27.3877C13.977 27.5855 13.1501 27.6855 12.2479 27.6855C11.8259 27.6855 11.4222 27.6636 11.0496 27.6303C12.7314 30.4939 15.8633 32.4182 19.3281 32.5817L22.3556 32.7254L19.9141 34.4608C15.7291 37.4378 11.388 38.5843 8.28392 39.0091Z" fill="#619B8A"/>
</svg>
